name GIL03_xslow1.mot
datacolumns 153
datarows 4
range 0.60833335 0.63333333
endheader

                time	           pelvis_tx	           pelvis_ty	           pelvis_tz	         pelvis_tilt	         pelvis_list	     pelvis_rotation	       hip_flexion_r	     hip_adduction_r	      hip_rotation_r	        knee_angle_r	       ankle_angle_r	    subtalar_angle_r	         mtp_angle_r	       hip_flexion_l	     hip_adduction_l	      hip_rotation_l	        knee_angle_l	       ankle_angle_l	    subtalar_angle_l	         mtp_angle_l	    lumbar_extension	      lumbar_bending	     lumbar_rotation	     ground_force_vx	     ground_force_vy	     ground_force_vz	     ground_force_px	     ground_force_py	     ground_force_pz	     ground_force_vx	     ground_force_vy	     ground_force_vz	     ground_force_px	     ground_force_py	     ground_force_pz	     ground_torque_x	     ground_torque_y	     ground_torque_z	     ground_torque_x	     ground_torque_y	     ground_torque_z	    ground_marker_px	    ground_marker_py	    ground_marker_pz	    ground_marker_px	    ground_marker_py	    ground_marker_pz	    ground_marker_px	    ground_marker_py	    ground_marker_pz	    ground_marker_px	    ground_marker_py	    ground_marker_pz	    ground_marker_px	    ground_marker_py	    ground_marker_pz	    ground_marker_px	    ground_marker_py	    ground_marker_pz	    ground_marker_px	    ground_marker_py	    ground_marker_pz	    ground_marker_px	    ground_marker_py	    ground_marker_pz	    ground_marker_px	    ground_marker_py	    ground_marker_pz	    ground_marker_px	    ground_marker_py	    ground_marker_pz	    ground_marker_px	    ground_marker_py	    ground_marker_pz	    ground_marker_px	    ground_marker_py	    ground_marker_pz	    ground_marker_px	    ground_marker_py	    ground_marker_pz	    ground_marker_px	    ground_marker_py	    ground_marker_pz	    ground_marker_px	    ground_marker_py	    ground_marker_pz	    ground_marker_px	    ground_marker_py	    ground_marker_pz	    ground_marker_px	    ground_marker_py	    ground_marker_pz	    ground_marker_px	    ground_marker_py	    ground_marker_pz	    ground_marker_px	    ground_marker_py	    ground_marker_pz	    ground_marker_px	    ground_marker_py	    ground_marker_pz	    ground_marker_px	    ground_marker_py	    ground_marker_pz	    ground_marker_px	    ground_marker_py	    ground_marker_pz	    ground_marker_px	    ground_marker_py	    ground_marker_pz	    ground_marker_px	    ground_marker_py	    ground_marker_pz	    ground_marker_px	    ground_marker_py	    ground_marker_pz	    ground_marker_px	    ground_marker_py	    ground_marker_pz	    ground_marker_px	    ground_marker_py	    ground_marker_pz	    ground_marker_px	    ground_marker_py	    ground_marker_pz	    ground_marker_px	    ground_marker_py	    ground_marker_pz	    ground_marker_px	    ground_marker_py	    ground_marker_pz	    ground_marker_px	    ground_marker_py	    ground_marker_pz	    ground_marker_px	    ground_marker_py	    ground_marker_pz	    ground_marker_px	    ground_marker_py	    ground_marker_pz	    ground_marker_px	    ground_marker_py	    ground_marker_pz	    ground_marker_px	    ground_marker_py	    ground_marker_pz	    ground_marker_px	    ground_marker_py	    ground_marker_pz	    ground_marker_px	    ground_marker_py	    ground_marker_pz	
          0.60833335	          1.64365661	          0.90491229	         -0.27909839	          3.32979012	         -1.36830211	         -0.43184978	         19.23683739	         -3.54294062	         -3.35269594	        -30.47266006	          7.74054527	          0.00000000	          0.00000000	         -5.71890116	          2.06563926	          3.11982632	        -13.02471542	         13.60768318	          0.00000000	          0.00000000	        -19.70067596	          0.16918272	          0.06836691	          0.00000000	          0.00000000	          0.00000000	          1.85295239	          0.00000000	         -0.19453464	          3.85729180	        389.52359415	          5.82071012	          1.56621912	          0.00000000	         -0.29740875	          0.00000000	          0.00000000	          0.00000000	          0.00000000	         -0.83729559	          0.00000000	          1.58536553	          0.84009731	         -0.28195077	          1.59084868	          0.82544494	         -0.21879397	          1.58143163	          0.82092851	         -0.33580059	          1.73710263	          0.47404101	         -0.18591717	          1.56648886	          0.46402970	         -0.31412190	          1.68387198	          0.08480182	         -0.17334858	          1.45829976	          0.06910644	         -0.30463544	          1.64365661	          0.90491229	         -0.27909839	          1.64327013	          0.90739489	         -0.17878979	          1.64404309	          0.90242970	         -0.37940696	          1.48573935	          0.92838526	         -0.25096884	          1.48536146	          0.92970252	         -0.30540290	          1.74135470	          0.48090070	         -0.13151252	          1.58323205	          0.46018702	         -0.36584371	          1.73339677	          0.46460745	         -0.24021563	          1.54417217	          0.45364910	         -0.27615240	          1.67089748	          0.08774275	         -0.13722014	          1.46900868	          0.06528920	         -0.34141862	          1.70549679	          0.09812224	         -0.20125684	          1.47406602	          0.07925251	         -0.27655488	          1.54362905	          1.34315801	         -0.27146909	          1.64040482	          1.26832759	         -0.22116390	          1.64078391	          1.26600111	         -0.32896933	          1.62618113	          1.27849960	         -0.28041250	          1.67466068	          1.10997880	         -0.27568659	          1.80017185	          0.68637460	         -0.19586454	          1.69953787	          0.62066025	         -0.28940761	          1.71246278	          0.70390773	         -0.15205450	          1.64478528	          0.66418457	         -0.36222199	          1.73781490	          0.62233412	         -0.14891249	          1.63762927	          0.57666588	         -0.35301346	          1.67646182	          0.21312627	         -0.07264165	          1.47741413	          0.18074854	         -0.41687492	          1.68486345	          0.21773358	         -0.11340936	          1.48107243	          0.18786742	         -0.37417153	          1.79029584	          0.06457732	         -0.13015474	          1.58486331	          0.03750087	         -0.29280970	
          0.61666667	          1.64812469	          0.90462112	         -0.27886140	          3.33107281	         -1.40662730	         -0.16890723	         19.25802040	         -3.43506908	         -3.14717007	        -28.90148926	          7.48746443	          0.00000000	          0.00000000	         -6.08358479	          1.99540305	          3.22579670	        -12.92439461	         13.77614117	          0.00000000	          0.00000000	        -19.76877785	          0.20223893	         -0.16227177	          0.00000000	          0.00000000	          0.00000000	          1.85647095	          0.00000000	         -0.19479170	          4.44007078	        390.07612379	          6.04155426	          1.56818103	          0.00000000	         -0.29717392	          0.00000000	          0.00000000	          0.00000000	          0.00000000	         -0.88609705	          0.00000000	          1.58997285	          0.84009731	         -0.28164026	          1.59558976	          0.82515657	         -0.21831520	          1.58562994	          0.82064462	         -0.33527705	          1.74215055	          0.47363731	         -0.18683685	          1.56848025	          0.46380731	         -0.31397778	          1.69967234	          0.08285233	         -0.17333116	          1.45847285	          0.06928819	         -0.30452737	          1.64812469	          0.90462112	         -0.27886140	          1.64820349	          0.90710157	         -0.17851527	          1.64804578	          0.90214062	         -0.37920752	          1.49033201	          0.92804790	         -0.24975553	          1.48962379	          0.92951614	         -0.30403748	          1.74687409	          0.48047540	         -0.13246842	          1.58506560	          0.45992017	         -0.36574715	          1.73799670	          0.46404812	         -0.24053214	          1.54625273	          0.45359573	         -0.27578661	          1.68690109	          0.08549246	         -0.13710721	          1.46906984	          0.06545153	         -0.34134087	          1.72104967	          0.09687421	         -0.20155059	          1.47462618	          0.07932377	         -0.27648517	          1.54838884	          1.34279048	         -0.27123842	          1.64508188	          1.26791465	         -0.22086158	          1.64539576	          1.26553178	         -0.32865316	          1.63081098	          1.27806830	         -0.28010461	          1.67914164	          1.10950208	         -0.27531505	          1.80482244	          0.68581033	         -0.19725426	          1.70243454	          0.61965156	         -0.28946960	          1.71754861	          0.70347583	         -0.15265542	          1.64761424	          0.66351670	         -0.36227828	          1.74305058	          0.62198722	         -0.14959833	          1.64009643	          0.57619083	         -0.35298577	          1.68952036	          0.21107267	         -0.07271603	          1.47783279	          0.18101363	         -0.41676295	          1.69751930	          0.21575934	         -0.11356024	          1.48151612	          0.18800853	         -0.37408894	          1.80709040	          0.06506453	         -0.13153104	          1.58486736	          0.03750888	         -0.29284367	
          0.62500000	          1.65261507	          0.90430570	         -0.27860019	          3.33488846	         -1.43465853	          0.09933604	         19.25059700	         -3.33388019	         -2.98291016	        -27.32508087	          7.21401501	          0.00000000	          0.00000000	         -6.43719864	          1.93233585	          3.31108570	        -12.84737396	         13.94776058	          0.00000000	          0.00000000	        -19.86263275	          0.21864308	         -0.39789787	          0.00000000	          0.00000000	          0.00000000	          1.85989490	          0.00000000	         -0.19494888	          5.07050346	        390.91658980	          6.33070393	          1.57011523	          0.00000000	         -0.29693616	          0.00000000	          0.00000000	          0.00000000	          0.00000000	         -0.93410242	          0.00000000	          1.59452975	          0.83995670	         -0.28124428	          1.60036147	          0.82483041	         -0.21782535	          1.58985174	          0.82034481	         -0.33474007	          1.74705052	          0.47314394	         -0.18777920	          1.57057524	          0.46355835	         -0.31382132	          1.71523571	          0.08110123	         -0.17343174	          1.45868158	          0.06948467	         -0.30442506	          1.65261507	          0.90430570	         -0.27860019	          1.65316594	          0.90676481	         -0.17821911	          1.65206420	          0.90184665	         -0.37898126	          1.49494958	          0.92766804	         -0.24850674	          1.49390781	          0.92931217	         -0.30261487	          1.75221264	          0.47993901	         -0.13344525	          1.58698070	          0.45963353	         -0.36564514	          1.74207520	          0.46332660	         -0.24092722	          1.54840064	          0.45362508	         -0.27539632	          1.70265079	          0.08345132	         -0.13712269	          1.46916163	          0.06563045	         -0.34127021	          1.73628354	          0.09568805	         -0.20184028	          1.47395897	          0.07980885	         -0.27636120	          1.55326366	          1.34239089	         -0.27095234	          1.64978361	          1.26747358	         -0.22049591	          1.65002561	          1.26502049	         -0.32828707	          1.63548493	          1.27760434	         -0.27976859	          1.68356729	          1.10897410	         -0.27486876	          1.80942202	          0.68505412	         -0.19853839	          1.70550132	          0.61868906	         -0.28955194	          1.72255862	          0.70290184	         -0.15321478	          1.65067124	          0.66303045	         -0.36220735	          1.74802959	          0.62137890	         -0.15026093	          1.64267516	          0.57564116	         -0.35289189	          1.70231140	          0.20915224	         -0.07288557	          1.47829616	          0.18129823	         -0.41664842	          1.70993626	          0.21381608	         -0.11389229	          1.48202896	          0.18812013	         -0.37402287	          1.82352078	          0.06570277	         -0.13303252	          1.58486807	          0.03752553	         -0.29287791	
          0.63333333	          1.65712547	          0.90396416	         -0.27830836	          3.34135818	         -1.45485270	          0.37265730	         19.21792984	         -3.23372626	         -2.85798168	        -25.75459671	          6.92099857	          0.00000000	          0.00000000	         -6.77887440	          1.87239325	          3.37481594	        -12.79572392	         14.12236595	          0.00000000	          0.00000000	        -19.91689301	          0.23109379	         -0.63437718	          0.00000000	          0.00000000	          0.00000000	          1.86324084	          0.00000000	         -0.19501385	          5.80695277	        392.30145282	          6.69319316	          1.57196875	          0.00000000	         -0.29670859	          0.00000000	          0.00000000	          0.00000000	          0.00000000	         -0.97904346	          0.00000000	          1.59908581	          0.83977968	         -0.28078640	          1.60516155	          0.82446665	         -0.21731445	          1.59409451	          0.82002443	         -0.33417940	          1.75181961	          0.47257739	         -0.18875556	          1.57277775	          0.46327806	         -0.31365281	          1.73051667	          0.07956329	         -0.17363349	          1.45892406	          0.06969880	         -0.30432749	          1.65712547	          0.90396416	         -0.27830836	          1.65815532	          0.90638691	         -0.17789789	          1.65609574	          0.90154147	         -0.37871882	          1.49958873	          0.92724746	         -0.24722265	          1.49821293	          0.92908281	         -0.30114007	          1.75739062	          0.47930628	         -0.13445373	          1.58898079	          0.45932445	         -0.36553806	          1.74592471	          0.46238449	         -0.24120229	          1.55071580	          0.45364016	         -0.27513301	          1.71811688	          0.08163558	         -0.13724396	          1.46928239	          0.06582861	         -0.34120536	          1.75083542	          0.09451427	         -0.20227295	          1.47328174	          0.08024615	         -0.27625051	          1.55817151	          1.34186673	         -0.27058825	          1.65450907	          1.26699185	         -0.22012866	          1.65467131	          1.26447642	         -0.32791880	          1.64020276	          1.27710485	         -0.27940789	          1.68809104	          1.10842633	         -0.27443451	          1.81397152	          0.68411106	         -0.19972707	          1.70873368	          0.61776882	         -0.28965512	          1.72753072	          0.70209467	         -0.15368436	          1.65395153	          0.66262430	         -0.36199397	          1.75287735	          0.62058395	         -0.15082246	          1.64541721	          0.57513475	         -0.35280630	          1.71485519	          0.20737751	         -0.07313257	          1.47880590	          0.18160509	         -0.41652989	          1.72199655	          0.21201725	         -0.11440655	          1.48264492	          0.18831225	         -0.37393361	          1.83954716	          0.06649020	         -0.13463199	          1.58487022	          0.03754892	         -0.29291484	
